name analog
datacolumns 19
datarows 50
range 0.598 0.6225
endheader
time	ground_force_vx	ground_force_vy	ground_force_vz	ground_force_px	ground_force_py	ground_force_pz	l_ground_force_vx	l_ground_force_vy	l_ground_force_vz	l_ground_force_px	l_ground_force_py	l_ground_force_pz	ground_torque_x	ground_torque_y	ground_torque_z	l_ground_torque_x	l_ground_torque_y	l_ground_torque_z
0.598	-0.0	-0.0	-0.0	-2.783460855484009	-9.780607223510742	-618.9593505859375	-0.0	-0.0	-0.0	-0.0	-0.0	-0.0	-0.0	-0.0	-0.0	-0.0	-0.0	-0.0
0.5985	-0.0	-0.0	-0.0	-2.9677553176879883	-9.55472183227539	-617.9002075195312	-0.0	-0.0	-0.0	-0.0	-0.0	-0.0	-0.0	-0.0	-0.0	-0.0	-0.0	-0.0
0.599	-0.0	-0.0	-0.0	-3.163832664489746	-9.293413162231444	-619.4776611328125	-0.0	-0.0	-0.0	-0.0	-0.0	-0.0	-0.0	-0.0	-0.0	-0.0	-0.0	-0.0
0.5995	-0.0	-0.0	-0.0	-3.152820348739624	-8.563032150268555	-620.6318969726562	-0.0	-0.0	-0.0	-0.0	-0.0	-0.0	-0.0	-0.0	-0.0	-0.0	-0.0	-0.0
0.6	-0.0	-0.0	-0.0	-3.063973903656006	-8.313111305236816	-620.6052856445312	-0.0	-0.0	-0.0	-0.0	-0.0	-0.0	-0.0	-0.0	-0.0	-0.0	-0.0	-0.0
0.6005	-0.0	-0.0	-0.0	-3.4070687294006348	-8.175971031188965	-618.7036743164062	-0.0	-0.0	-0.0	-0.0	-0.0	-0.0	-0.0	-0.0	-0.0	-0.0	-0.0	-0.0
0.601	-0.0	-0.0	-0.0	-3.2766823768615723	-7.788095951080322	-619.5061645507812	-0.0	-0.0	-0.0	-0.0	-0.0	-0.0	-0.0	-0.0	-0.0	-0.0	-0.0	-0.0
0.6015	-0.0	-0.0	-0.0	-3.389999389648437	-7.325350284576416	-620.3160400390625	-0.0	-0.0	-0.0	-0.0	-0.0	-0.0	-0.0	-0.0	-0.0	-0.0	-0.0	-0.0
0.602	-0.0	-0.0	-0.0	-2.7731995582580566	-6.335925579071045	-617.2626342773438	-0.0	-0.0	-0.0	-0.0	-0.0	-0.0	-0.0	-0.0	-0.0	-0.0	-0.0	-0.0
0.6025	-0.0	-0.0	-0.0	-2.514291286468506	-6.555665969848633	-617.1351318359375	-0.0	-0.0	-0.0	-0.0	-0.0	-0.0	-0.0	-0.0	-0.0	-0.0	-0.0	-0.0
0.603	-0.0	-0.0	-0.0	-1.5652496814727783	-6.004174709320068	-617.4226684570312	-0.0	-0.0	-0.0	-0.0	-0.0	-0.0	-0.0	-0.0	-0.0	-0.0	-0.0	-0.0
0.6035	-0.0	-0.0	-0.0	-0.616107702255249	-5.793476104736328	-616.9088134765625	-0.0	-0.0	-0.0	-0.0	-0.0	-0.0	-0.0	-0.0	-0.0	-0.0	-0.0	-0.0
0.604	-0.0	-0.0	-0.0	-0.0734008252620697	-5.209803581237793	-617.6148071289062	-0.0	-0.0	-0.0	-0.0	-0.0	-0.0	-0.0	-0.0	-0.0	-0.0	-0.0	-0.0
0.6045	-0.0	-0.0	-0.0	0.8362268209457397	-4.723911285400391	-614.88623046875	-0.0	-0.0	-0.0	-0.0	-0.0	-0.0	-0.0	-0.0	-0.0	-0.0	-0.0	-0.0
0.605	-0.0	-0.0	-0.0	0.9166722297668456	-4.342844486236572	-615.0807495117188	-0.0	-0.0	-0.0	-0.0	-0.0	-0.0	-0.0	-0.0	-0.0	-0.0	-0.0	-0.0
0.6055	-0.0	-0.0	-0.0	1.378088116645813	-3.654346466064453	-613.9613037109375	-0.0	-0.0	-0.0	-0.0	-0.0	-0.0	-0.0	-0.0	-0.0	-0.0	-0.0	-0.0
0.606	-0.0	-0.0	-0.0	2.0024783611297607	-3.094904661178589	-613.0226440429688	-0.0	-0.0	-0.0	-0.0	-0.0	-0.0	-0.0	-0.0	-0.0	-0.0	-0.0	-0.0
0.6065	-0.0	-0.0	-0.0	2.820284366607666	-2.688911437988281	-610.7460327148438	-0.0	-0.0	-0.0	-0.0	-0.0	-0.0	-0.0	-0.0	-0.0	-0.0	-0.0	-0.0
0.607	-0.0	-0.0	-0.0	2.9935407638549805	-1.975675225257873	-609.686767578125	-0.0	-0.0	-0.0	-0.0	-0.0	-0.0	-0.0	-0.0	-0.0	-0.0	-0.0	-0.0
0.6075	-0.0	-0.0	-0.0	3.618131399154663	-1.065136194229126	-609.3917846679688	-0.0	-0.0	-0.0	-0.0	-0.0	-0.0	-0.0	-0.0	-0.0	-0.0	-0.0	-0.0
0.608	-0.0	-0.0	-0.0	4.207319259643555	-1.0341655015945437	-607.0176391601562	-0.0	-0.0	-0.0	-0.0	-0.0	-0.0	-0.0	-0.0	-0.0	-0.0	-0.0	-0.0
0.6085	-0.0	-0.0	-0.0	5.045731067657471	-0.5703959465026855	-607.7804565429688	-0.0	-0.0	-0.0	-0.0	-0.0	-0.0	-0.0	-0.0	-0.0	-0.0	-0.0	-0.0
0.609	-0.0	-0.0	-0.0	5.581110954284668	-0.3174057006835937	-605.8026733398438	-0.0	-0.0	-0.0	-0.0	-0.0	-0.0	-0.0	-0.0	-0.0	-0.0	-0.0	-0.0
0.6095	-0.0	-0.0	-0.0	6.283740997314453	0.0250800251960754	-608.7384643554688	-0.0	-0.0	-0.0	-0.0	-0.0	-0.0	-0.0	-0.0	-0.0	-0.0	-0.0	-0.0
0.61	-0.0	-0.0	-0.0	6.333946228027344	-0.1280176192522049	-608.6286010742188	-0.0	-0.0	-0.0	-0.0	-0.0	-0.0	-0.0	-0.0	-0.0	-0.0	-0.0	-0.0
0.6105	-0.0	-0.0	-0.0	6.628823280334473	0.3565216064453125	-610.04150390625	-0.0	-0.0	-0.0	-0.0	-0.0	-0.0	-0.0	-0.0	-0.0	-0.0	-0.0	-0.0
0.611	-0.0	-0.0	-0.0	6.795025825500488	0.8139944076538086	-612.667236328125	-0.0	-0.0	-0.0	-0.0	-0.0	-0.0	-0.0	-0.0	-0.0	-0.0	-0.0	-0.0
0.6115	-0.0	-0.0	-0.0	6.830638408660889	1.6537601947784424	-612.2566528320312	-0.0	-0.0	-0.0	-0.0	-0.0	-0.0	-0.0	-0.0	-0.0	-0.0	-0.0	-0.0
0.612	-0.0	-0.0	-0.0	6.933027267456055	2.457260608673096	-614.4325561523438	-0.0	-0.0	-0.0	-0.0	-0.0	-0.0	-0.0	-0.0	-0.0	-0.0	-0.0	-0.0
0.6125	-0.0	-0.0	-0.0	6.257264614105225	3.2086944580078125	-615.6422729492188	-0.0	-0.0	-0.0	-0.0	-0.0	-0.0	-0.0	-0.0	-0.0	-0.0	-0.0	-0.0
0.613	-0.0	-0.0	-0.0	5.594801425933838	3.832607269287109	-616.3494873046875	-0.0	-0.0	-0.0	-0.0	-0.0	-0.0	-0.0	-0.0	-0.0	-0.0	-0.0	-0.0
0.6135	-0.0	-0.0	-0.0	4.88155460357666	4.086955547332764	-616.8546142578125	-0.0	-0.0	-0.0	-0.0	-0.0	-0.0	-0.0	-0.0	-0.0	-0.0	-0.0	-0.0
0.614	-0.0	-0.0	-0.0	5.033782958984375	3.3869552612304688	-619.4743041992188	-0.0	-0.0	-0.0	-0.0	-0.0	-0.0	-0.0	-0.0	-0.0	-0.0	-0.0	-0.0
0.6145	-0.0	-0.0	-0.0	5.7864484786987305	2.9034438133239746	-620.033935546875	-0.0	-0.0	-0.0	-0.0	-0.0	-0.0	-0.0	-0.0	-0.0	-0.0	-0.0	-0.0
0.615	-0.0	-0.0	-0.0	6.831443786621094	2.40652084350586	-622.9617309570312	-0.0	-0.0	-0.0	-0.0	-0.0	-0.0	-0.0	-0.0	-0.0	-0.0	-0.0	-0.0
0.6155	-0.0	-0.0	-0.0	7.888173580169678	2.190645456314087	-622.2560424804688	-0.0	-0.0	-0.0	-0.0	-0.0	-0.0	-0.0	-0.0	-0.0	-0.0	-0.0	-0.0
0.616	-0.0	-0.0	-0.0	7.847969055175781	1.7942465543746948	-623.5111083984375	-0.0	-0.0	-0.0	-0.0	-0.0	-0.0	-0.0	-0.0	-0.0	-0.0	-0.0	-0.0
0.6165	-0.0	-0.0	-0.0	7.174257755279541	1.707841396331787	-620.1839599609375	-0.0	-0.0	-0.0	-0.0	-0.0	-0.0	-0.0	-0.0	-0.0	-0.0	-0.0	-0.0
0.617	-0.0	-0.0	-0.0	6.400467872619629	1.3888200521469116	-619.3748779296875	-0.0	-0.0	-0.0	-0.0	-0.0	-0.0	-0.0	-0.0	-0.0	-0.0	-0.0	-0.0
0.6175	-0.0	-0.0	-0.0	6.181553363800049	1.4298593997955322	-616.90234375	-0.0	-0.0	-0.0	-0.0	-0.0	-0.0	-0.0	-0.0	-0.0	-0.0	-0.0	-0.0
0.618	-0.0	-0.0	-0.0	5.657332897186279	1.7675528526306152	-614.0767211914062	-0.0	-0.0	-0.0	-0.0	-0.0	-0.0	-0.0	-0.0	-0.0	-0.0	-0.0	-0.0
0.6185	-0.0	-0.0	-0.0	5.515778541564941	1.4630218744277954	-612.5603637695312	-0.0	-0.0	-0.0	-0.0	-0.0	-0.0	-0.0	-0.0	-0.0	-0.0	-0.0	-0.0
0.619	-0.0	-0.0	-0.0	4.208422660827637	1.462894320487976	-611.9571533203125	-0.0	-0.0	-0.0	-0.0	-0.0	-0.0	-0.0	-0.0	-0.0	-0.0	-0.0	-0.0
0.6195	-0.0	-0.0	-0.0	3.620907068252564	1.190192461013794	-609.6094970703125	-0.0	-0.0	-0.0	-0.0	-0.0	-0.0	-0.0	-0.0	-0.0	-0.0	-0.0	-0.0
0.62	-0.0	-0.0	-0.0	3.4060535430908203	0.7919208407402039	-611.6670532226562	-0.0	-0.0	-0.0	-0.0	-0.0	-0.0	-0.0	-0.0	-0.0	-0.0	-0.0	-0.0
0.6205	-0.0	-0.0	-0.0	3.3007888793945312	0.4780642390251159	-614.2843017578125	-0.0	-0.0	-0.0	-0.0	-0.0	-0.0	-0.0	-0.0	-0.0	-0.0	-0.0	-0.0
0.621	-0.0	-0.0	-0.0	3.353621482849121	-0.072690337896347	-617.7511596679688	-0.0	-0.0	-0.0	-0.0	-0.0	-0.0	-0.0	-0.0	-0.0	-0.0	-0.0	-0.0
0.6215	-0.0	-0.0	-0.0	3.211578369140625	-0.4191866219043731	-620.6420288085938	-0.0	-0.0	-0.0	-0.0	-0.0	-0.0	-0.0	-0.0	-0.0	-0.0	-0.0	-0.0
0.622	-0.0	-0.0	-0.0	3.443061113357544	-1.2574350833892822	-620.7853393554688	-0.0	-0.0	-0.0	-0.0	-0.0	-0.0	-0.0	-0.0	-0.0	-0.0	-0.0	-0.0
0.6225	-0.0	-0.0	-0.0	3.1849968433380127	-1.0335499048233032	-622.0551147460938	-0.0	-0.0	-0.0	-0.0	-0.0	-0.0	-0.0	-0.0	-0.0	-0.0	-0.0	-0.0
